<?xml version="1.0" encoding="utf-8"?>
<!-- Generator: Adobe Illustrator 16.0.0, SVG Export Plug-In . SVG Version: 6.00 Build 0)  -->
<!DOCTYPE svg PUBLIC "-//W3C//DTD SVG 1.1//EN" "http://www.w3.org/Graphics/SVG/1.1/DTD/svg11.dtd">
<svg version="1.1" id="Layer_1" xmlns="http://www.w3.org/2000/svg" xmlns:xlink="http://www.w3.org/1999/xlink" x="0px" y="0px"
	 width="251.37px" height="251.373px" viewBox="0 0 251.37 251.373" enable-background="new 0 0 251.37 251.373"
	 xml:space="preserve">
<path d="M251.37,125.685C251.37,56.273,195.093,0,125.685,0C56.27,0,0,56.273,0,125.685s56.27,125.688,125.685,125.688
	C195.093,251.373,251.37,195.096,251.37,125.685L251.37,125.685z M181.153,134.199l22.762,50.213h-19.113l-20.504-45.88h-11.295
	v45.88l-18.245,0.055v-45.953h-14.793v45.953l-18.244,0.005v-45.958H71.254v45.958l-18.245-0.06V66.262h18.245v56.752h30.466V66.262
	h18.244v56.752h14.793V66.262h27.106c23.803,0,37.352,13.549,37.352,34.576v1.39C199.216,116.654,192.444,128.117,181.153,134.199
	L181.153,134.199z M181.153,102.752v-1.043c0-12.162-5.91-19.464-19.811-19.464h-8.34v40.832h8.34
	C174.888,123.077,181.153,114.564,181.153,102.752L181.153,102.752z"/>
</svg>
